# xmcd
#
# Track frame offsets:
#	182
#	22390
#	44160
#	65590
#	95540
#	115482
#	139265
#	162622
#	185547
#	208707
#	231667
#	252317
#	275032
#
# Disc length: 3986 seconds
#
# Revision: 0
# Processed by: cddbd v1.5.2PL0 Copyright (c) Steve Scherf et al.
# Submitted via: audiograbber 1.83.01
#
DISCID=dd0f900d
DTITLE=Never The Bride - Never The Bride
DYEAR=1995
DGENRE=Rock
TTITLE0=Saving Grace
TTITLE1=2 Into 1
TTITLE2=Second Look
TTITLE3=Loser In Love
TTITLE4=Rough 'n' Ready
TTITLE5=3 Good Reasons
TTITLE6=Cry Out
TTITLE7=Miracle Of Life
TTITLE8=This Is A Cry For Love
TTITLE9=Betty's Song
TTITLE10=Welcome To My World
TTITLE11=Doctors Don't Dance
TTITLE12=The Answer
EXTD=
EXTT0=
EXTT1=
EXTT2=
EXTT3=
EXTT4=
EXTT5=
EXTT6=
EXTT7=
EXTT8=
EXTT9=
EXTT10=
EXTT11=
EXTT12=
PLAYORDER=
